<?xml version="1.0" encoding="UTF-8" standalone="no"?>
<!DOCTYPE svg PUBLIC "-//W3C//DTD SVG 1.1//EN"
 "http://www.w3.org/Graphics/SVG/1.1/DTD/svg11.dtd">
<!-- Generated by graphviz version 2.38.0 (20140413.2041)
 -->
<!-- Title: dependency&#45;cruiser output Pages: 1 -->
<svg width="204pt" height="136pt"
 viewBox="0.00 0.00 204.00 136.00" xmlns="http://www.w3.org/2000/svg" xmlns:xlink="http://www.w3.org/1999/xlink">
<g id="graph0" class="graph" transform="scale(1 1) rotate(0) translate(4 132)">
<title>dependency&#45;cruiser output</title>
<g id="clust1" class="cluster"><title>cluster_src</title>
<path fill="#ffffff" stroke="black" stroke-width="2" d="M34.5,-68C34.5,-68 176,-68 176,-68 182,-68 188,-74 188,-80 188,-80 188,-108 188,-108 188,-114 182,-120 176,-120 176,-120 34.5,-120 34.5,-120 28.5,-120 22.5,-114 22.5,-108 22.5,-108 22.5,-80 22.5,-80 22.5,-74 28.5,-68 34.5,-68"/>
<text text-anchor="middle" x="105.25" y="-108.8" font-family="Helvetica,sans-Serif" font-weight="bold" font-size="9.00">src</text>
</g>
<g id="clust2" class="cluster"><title>cluster_test</title>
<path fill="#ffffff" stroke="black" stroke-width="2" d="M20,-8C20,-8 95,-8 95,-8 101,-8 107,-14 107,-20 107,-20 107,-48 107,-48 107,-54 101,-60 95,-60 95,-60 20,-60 20,-60 14,-60 8,-54 8,-48 8,-48 8,-20 8,-20 8,-14 14,-8 20,-8"/>
<text text-anchor="middle" x="57.5" y="-48.8" font-family="Helvetica,sans-Serif" font-weight="bold" font-size="9.00">test</text>
</g>
<!-- src/app.js -->
<g id="node1" class="node"><title>src/app.js</title>
<g id="a_node1"><a xlink:href="src/app.js" xlink:title="app.js">
<path fill="#ffffcc" stroke="black" d="M78.5,-94C78.5,-94 36.5,-94 36.5,-94 33.5,-94 30.5,-91 30.5,-88 30.5,-88 30.5,-82 30.5,-82 30.5,-79 33.5,-76 36.5,-76 36.5,-76 78.5,-76 78.5,-76 81.5,-76 84.5,-79 84.5,-82 84.5,-82 84.5,-88 84.5,-88 84.5,-91 81.5,-94 78.5,-94"/>
<text text-anchor="middle" x="57.5" y="-82.8" font-family="Helvetica,sans-Serif" font-size="9.00">app.js</text>
</a>
</g>
</g>
<!-- src/tinyFuncs.js -->
<g id="node2" class="node"><title>src/tinyFuncs.js</title>
<g id="a_node2"><a xlink:href="src/tinyFuncs.js" xlink:title="tinyFuncs.js">
<path fill="#ffffcc" stroke="black" d="M174,-94C174,-94 121,-94 121,-94 118,-94 115,-91 115,-88 115,-88 115,-82 115,-82 115,-79 118,-76 121,-76 121,-76 174,-76 174,-76 177,-76 180,-79 180,-82 180,-82 180,-88 180,-88 180,-91 177,-94 174,-94"/>
<text text-anchor="middle" x="147.5" y="-82.8" font-family="Helvetica,sans-Serif" font-size="9.00">tinyFuncs.js</text>
</a>
</g>
</g>
<!-- src/app.js&#45;&gt;src/tinyFuncs.js -->
<g id="edge1" class="edge"><title>src/app.js&#45;&gt;src/tinyFuncs.js</title>
<path fill="none" stroke="#999999" d="M84.9029,-85C92.701,-85 101.382,-85 109.709,-85"/>
<polygon fill="#999999" stroke="#999999" points="109.837,-86.7501 114.837,-85 109.837,-83.2501 109.837,-86.7501"/>
</g>
<!-- test/tinyFuncs.test.js -->
<g id="node3" class="node"><title>test/tinyFuncs.test.js</title>
<g id="a_node3"><a xlink:href="test/tinyFuncs.test.js" xlink:title="tinyFuncs.test.js">
<path fill="#ffffcc" stroke="black" d="M93,-34C93,-34 22,-34 22,-34 19,-34 16,-31 16,-28 16,-28 16,-22 16,-22 16,-19 19,-16 22,-16 22,-16 93,-16 93,-16 96,-16 99,-19 99,-22 99,-22 99,-28 99,-28 99,-31 96,-34 93,-34"/>
<text text-anchor="middle" x="57.5" y="-22.8" font-family="Helvetica,sans-Serif" font-size="9.00">tinyFuncs.test.js</text>
</a>
</g>
</g>
<!-- test/tinyFuncs.test.js&#45;&gt;src/tinyFuncs.js -->
<g id="edge2" class="edge"><title>test/tinyFuncs.test.js&#45;&gt;src/tinyFuncs.js</title>
<path fill="none" stroke="#999999" d="M71.8653,-34.1127C87.0718,-44.4808 111.97,-61.4566 128.784,-72.9209"/>
<polygon fill="#999999" stroke="#999999" points="128.18,-74.6273 133.297,-75.9981 130.152,-71.7355 128.18,-74.6273"/>
</g>
</g>
</svg>
